# xmcd CD database file
#
# Track frame offsets:
#	225
#	11272
#	25249
#	38425
#	51235
#	64346
#	79419
#	94881
#	109352
#	122990
#	137013
#	149405
#	164090
#	177836
#	190465
#	205221
#	219662
#	232787
#	247412
#	260988
#	273423
#	286521
#	298232
#	312839
#	327977
#
# Disc length: 4575 seconds
#
# Revision: 0
# Processed by: cddbd v1.5.2PL0 Copyright (c) Steve Scherf et al.
# Submitted via: CDex 1.51
#
DISCID=8d11dc19
DTITLE=Harry James - Trumpet Time
DYEAR=2006
DGENRE=Jazz
TTITLE0=Frank Sinatra (vocal) - Ciribiribin
TTITLE1=Avalon
TTITLE2=Blues In The Night
TTITLE3=Estrallita
TTITLE4=Helen Forest (vocal) - Manhattan Serenade
TTITLE5=Autumn Serenade
TTITLE6=Kitty Kallen (vocal) - It's Been A Long, Long, Time
TTITLE7=Ain't Misbehavin'
TTITLE8=My Melancholy Baby
TTITLE9=Helen Forest (vocal) - But Not For Me
TTITLE10=The Mole
TTITLE11=Kitty Kallen (vocal) - The Wonder Of You
TTITLE12=Let Me Up
TTITLE13=Easy
TTITLE14=Buddy di Vito (vocal) - Oh But I Do
TTITLE15=Dick Haymes (vocal) - My Silent Love
TTITLE16=Strictly Instrumental
TTITLE17=Kitty Kallen (vocal) - I'm Beginning To See The Light
TTITLE18=Buddy di Vito (vocal) - I'm Always Chasing Rainbows
TTITLE19=Dick Haymes (vocal) - I'll Get By
TTITLE20=Trumpet Rhapsody - Part 1
TTITLE21=Trumpet Rhapsody - Part 2
TTITLE22=September Song
TTITLE23=Keb-Lah
TTITLE24=Jump Town
EXTD=YEAR: 2006
EXTT0=
EXTT1=
EXTT2=
EXTT3=
EXTT4=
EXTT5=
EXTT6=
EXTT7=
EXTT8=
EXTT9=
EXTT10=
EXTT11=
EXTT12=
EXTT13=
EXTT14=
EXTT15=
EXTT16=
EXTT17=
EXTT18=
EXTT19=
EXTT20=
EXTT21=
EXTT22=
EXTT23=
EXTT24=
PLAYORDER=
